{"title":"jag.s06.dvdrip.xvid-saints","uid":5706645,"size":8807849984,"categoryP":"video","categoryS":"movies","magnet":"?xt=urn:btih:71b016edd0bd77d57ceda697a64e5b9e042e6345&amp;dn=jag.s06.dvdrip.xvid-saints&amp;tr=udp%3A%2F%2Ftracker.openbittorrent.com%3A80&amp;tr=udp%3A%2F%2Fopen.demonii.com%3A1337&amp;tr=udp%3A%2F%2Ftracker.coppersurfer.tk%3A6969&amp;tr=udp%3A%2F%2Fexodus.desync.com%3A6969","seeders":0,"leechers":1,"uploader":"merczedes","files":24,"time":1279673810,"description":"General\nComplete name                    : jag.s06e01.dvdrip.xvid-saints.avi\nFormat                           : AVI\nFormat/Info                      : Audio Video Interleave\nFile size                        : 350 MiB\nDuration                         : 43mn 30s\nOverall bit rate                 : 1 125 Kbps\nWriting application              : Nandub v1.0rc2\nWriting library                  : Nandub build 1852/release\n\nVideo\nID                               : 0\nFormat                           : MPEG-4 Visual\nFormat profile                   : Advanced Simple@L5\nFormat settings, BVOP            : Yes\nFormat settings, QPel            : No\nFormat settings, GMC             : No warppoints\nFormat settings, Matrix          : Default (H.263)\nMuxing mode                      : Packed bitstream\nCodec ID                         : XVID\nCodec ID/Hint                    : XviD\nDuration                         : 43mn 30s\nBit rate                         : 988 Kbps\nWidth                            : 624 pixels\nHeight                           : 352 pixels\nDisplay aspect ratio             : 16:9\nFrame rate                       : 23.976 fps\nColor space                      : YUV\nChroma subsampling               : 4:2:0\nBit depth                        : 8 bits\nScan type                        : Progressive\nBits/(Pixel*Frame)               : 0.188\nStream size                      : 307 MiB (88%)\nWriting library                  : XviD 1.2.0.dev47 (UTC 2006-11-01)\n\nAudio\nID                               : 1\nFormat                           : MPEG Audio\nFormat version                   : Version 1\nFormat profile                   : Layer 3\nMode                             : Joint stereo\nMode extension                   : MS Stereo\nCodec ID                         : 55\nCodec ID/Hint                    : MP3\nDuration                         : 43mn 30s\nBit rate mode                    : Variable\nBit rate                         : 124 Kbps\nChannel(s)                       : 2 channels\nSampling rate                    : 48.0 KHz\nStream size                      : 38.7 MiB (11%)\nAlignment                        : Aligned on interleaves\nInterleave, duration             : 24 ms (0.58 video frame)\nInterleave, preload duration     : 141 ms\nWriting library                  : LAME3.93 \nEncoding settings                : -m j -V 1 -q 2 -lowpass 19.5 --vbr-new","torrent":{"xt":"urn:btih:71b016edd0bd77d57ceda697a64e5b9e042e6345","amp;dn":"jag.s06.dvdrip.xvid-saints","amp;tr":["udp%3A%2F%2Ftracker.openbittorrent.com%3A80","udp%3A%2F%2Fopen.demonii.com%3A1337","udp%3A%2F%2Ftracker.coppersurfer.tk%3A6969","udp%3A%2F%2Fexodus.desync.com%3A6969"],"infoHash":"71b016edd0bd77d57ceda697a64e5b9e042e6345","infoHashBuffer":{"type":"Buffer","data":[113,176,22,237,208,189,119,213,124,237,166,151,166,78,91,158,4,46,99,69]},"announce":[],"urlList":[]}}